<?xml version="1.0" encoding="UTF-8" standalone="no"?>
<svg
   xmlns:dc="http://purl.org/dc/elements/1.1/"
   xmlns:cc="http://creativecommons.org/ns#"
   xmlns:rdf="http://www.w3.org/1999/02/22-rdf-syntax-ns#"
   xmlns:svg="http://www.w3.org/2000/svg"
   xmlns="http://www.w3.org/2000/svg"
   viewBox="0 0 218.2 329.94666"
   height="329.94666"
   width="218.2"
   xml:space="preserve"
   id="svg2"
   version="1.1"><metadata
     id="metadata8"><rdf:RDF><cc:Work
         rdf:about=""><dc:format>image/svg+xml</dc:format><dc:type
           rdf:resource="http://purl.org/dc/dcmitype/StillImage" /></cc:Work></rdf:RDF></metadata><defs
     id="defs6"><clipPath
       id="clipPath56"
       clipPathUnits="userSpaceOnUse"><path
         id="path54"
         d="m 967.672,552.84 c 0,0.012 0,0.012 0,0.012 -0.781,-0.321 -1.563,-0.633 -2.344,-0.954 0.789,0.321 1.551,0.614 2.344,0.942 z" /></clipPath><linearGradient
       id="linearGradient66"
       spreadMethod="pad"
       gradientTransform="matrix(2.3439,0,0,-2.3439,965.327,552.38)"
       gradientUnits="userSpaceOnUse"
       y2="0"
       x2="1"
       y1="0"
       x1="0"><stop
         id="stop58"
         offset="0"
         style="stop-opacity:1;stop-color:#a4d684" /><stop
         id="stop60"
         offset="0.168539"
         style="stop-opacity:1;stop-color:#96d5c7" /><stop
         id="stop62"
         offset="0.511236"
         style="stop-opacity:1;stop-color:#4db1db" /><stop
         id="stop64"
         offset="1"
         style="stop-opacity:1;stop-color:#26469b" /></linearGradient><clipPath
       id="clipPath76"
       clipPathUnits="userSpaceOnUse"><path
         id="path74"
         d="m 766.402,494.82 c -0.367,-0.058 -0.742,-0.129 -1.089,-0.172 0.386,0.051 0.8,0.133 1.195,0.192 -0.039,0 -0.078,-0.008 -0.106,-0.02 z" /></clipPath><linearGradient
       id="linearGradient86"
       spreadMethod="pad"
       gradientTransform="matrix(1.196,0,0,-1.196,765.312,494.74)"
       gradientUnits="userSpaceOnUse"
       y2="0"
       x2="1"
       y1="0"
       x1="0"><stop
         id="stop78"
         offset="0"
         style="stop-opacity:1;stop-color:#a4d684" /><stop
         id="stop80"
         offset="0.168539"
         style="stop-opacity:1;stop-color:#96d5c7" /><stop
         id="stop82"
         offset="0.511236"
         style="stop-opacity:1;stop-color:#4db1db" /><stop
         id="stop84"
         offset="1"
         style="stop-opacity:1;stop-color:#26469b" /></linearGradient><clipPath
       id="clipPath96"
       clipPathUnits="userSpaceOnUse"><path
         id="path94"
         d="m 943.863,543.289 c -0.547,-0.207 -1.074,-0.398 -1.601,-0.609 0.468,0.179 0.937,0.359 1.406,0.539 0.059,0.019 0.125,0.051 0.195,0.07 z" /></clipPath><linearGradient
       id="linearGradient106"
       spreadMethod="pad"
       gradientTransform="matrix(1.602,0,0,-1.602,942.26,542.99)"
       gradientUnits="userSpaceOnUse"
       y2="0"
       x2="1"
       y1="0"
       x1="0"><stop
         id="stop98"
         offset="0"
         style="stop-opacity:1;stop-color:#a4d684" /><stop
         id="stop100"
         offset="0.168539"
         style="stop-opacity:1;stop-color:#96d5c7" /><stop
         id="stop102"
         offset="0.511236"
         style="stop-opacity:1;stop-color:#4db1db" /><stop
         id="stop104"
         offset="1"
         style="stop-opacity:1;stop-color:#26469b" /></linearGradient><clipPath
       id="clipPath116"
       clipPathUnits="userSpaceOnUse"><path
         id="path114"
         d="m 656.063,488.941 c 0.07,0 0.132,0 0.203,-0.011 -0.164,0.011 -0.325,0.019 -0.485,0.031 0.098,0 0.184,-0.012 0.282,-0.02 z" /></clipPath><linearGradient
       id="linearGradient126"
       spreadMethod="pad"
       gradientTransform="matrix(0.483,0,0,-0.483,655.781,488.95)"
       gradientUnits="userSpaceOnUse"
       y2="0"
       x2="1"
       y1="0"
       x1="0"><stop
         id="stop118"
         offset="0"
         style="stop-opacity:1;stop-color:#a4d684" /><stop
         id="stop120"
         offset="0.168539"
         style="stop-opacity:1;stop-color:#96d5c7" /><stop
         id="stop122"
         offset="0.511236"
         style="stop-opacity:1;stop-color:#4db1db" /><stop
         id="stop124"
         offset="1"
         style="stop-opacity:1;stop-color:#26469b" /></linearGradient><clipPath
       id="clipPath136"
       clipPathUnits="userSpaceOnUse"><path
         id="path134"
         d="m 636.93,490.281 c 0.035,-0.011 0.066,-0.011 0.101,-0.011 -0.199,0.011 -0.394,0.039 -0.601,0.062 0.168,-0.023 0.332,-0.043 0.5,-0.051 z" /></clipPath><linearGradient
       id="linearGradient146"
       spreadMethod="pad"
       gradientTransform="matrix(0.601,0,0,-0.601,636.43,490.3)"
       gradientUnits="userSpaceOnUse"
       y2="0"
       x2="1"
       y1="0"
       x1="0"><stop
         id="stop138"
         offset="0"
         style="stop-opacity:1;stop-color:#a4d684" /><stop
         id="stop140"
         offset="0.168539"
         style="stop-opacity:1;stop-color:#96d5c7" /><stop
         id="stop142"
         offset="0.511236"
         style="stop-opacity:1;stop-color:#4db1db" /><stop
         id="stop144"
         offset="1"
         style="stop-opacity:1;stop-color:#26469b" /></linearGradient><clipPath
       id="clipPath156"
       clipPathUnits="userSpaceOnUse"><path
         id="path154"
         d="m 790.113,498.75 h 0.02 c 0.394,0.07 0.793,0.148 1.191,0.219 v 0 c -0.402,-0.071 -0.812,-0.149 -1.211,-0.219 z" /></clipPath><linearGradient
       id="linearGradient166"
       spreadMethod="pad"
       gradientTransform="matrix(1.211,0,0,-1.211,790.112,498.86)"
       gradientUnits="userSpaceOnUse"
       y2="0"
       x2="1"
       y1="0"
       x1="0"><stop
         id="stop158"
         offset="0"
         style="stop-opacity:1;stop-color:#a4d684" /><stop
         id="stop160"
         offset="0.168539"
         style="stop-opacity:1;stop-color:#96d5c7" /><stop
         id="stop162"
         offset="0.511236"
         style="stop-opacity:1;stop-color:#4db1db" /><stop
         id="stop164"
         offset="1"
         style="stop-opacity:1;stop-color:#26469b" /></linearGradient><clipPath
       id="clipPath176"
       clipPathUnits="userSpaceOnUse"><path
         id="path174"
         d="m 1075.22,416.34 c 0,-5.52 -4.41,-22.07 -19.87,-18.758 -15.45,3.309 -41.95,14.348 -39.74,39.727 0,0 1.1,29.82 30.91,19.882 29.8,-9.941 28.7,-35.339 28.7,-40.851 z m -83.896,-29.809 c -15.449,6.629 -11.035,6.629 -12.148,18.77 -0.832,9.179 3.34,66.269 -37.891,136.961 -0.012,0.008 -0.019,0.019 -0.019,0.027 -26.778,-10.309 -52.344,-18.898 -76.621,-25.91 6.121,-14.891 10.195,-30.27 7.46,-37.109 -4.425,-11.04 -9.941,-3.321 -13.253,4.41 -2.286,5.32 -6.668,16.91 -11.336,27.949 -7.356,-1.938 -14.551,-3.707 -21.653,-5.379 -0.035,-0.012 -0.066,-0.02 -0.097,-0.02 -5.766,-1.359 -11.446,-2.628 -17.051,-3.808 -0.27,-0.051 -0.535,-0.113 -0.801,-0.172 -5.555,-1.16 -11.043,-2.25 -16.449,-3.25 -0.043,-0.012 -0.098,-0.02 -0.141,-0.031 -0.015,-0.008 -0.031,-0.02 -0.039,-0.028 -1.906,-1.589 -3.703,-3.05 -5.293,-4.222 -16.558,-12.137 -26.5,-48.571 -4.422,-57.41 22.086,-8.829 29.817,-14.34 25.399,-17.649 -4.418,-3.32 -32.02,0 -46.375,9.93 -14.344,9.93 -34.586,13.551 -23.176,33.109 4.184,7.18 14.863,17.93 27.895,31.949 0.003,0.012 0.015,0.024 0.019,0.032 h 0.004 c 35.113,37.73 87.422,99.191 76.953,178.871 -4.414,32.008 -46.363,80.59 -46.363,80.59 0,0 -16.555,16.558 -23.184,-18.77 -6.621,-35.32 -11.031,-76.16 44.16,-114.812 4.411,4.421 4.411,4.421 4.411,4.421 l 2.21,-25.378 c 0,0 -89.421,58.5 -69.55,146.808 19.879,88.309 32.023,88.309 43.058,94.942 11.035,6.628 22.071,-5.52 20.973,6.628 0,0 -24.285,20.969 -22.078,36.418 2.203,15.454 9.929,30.911 35.32,25.391 25.399,-5.519 17.676,-41.949 14.356,-46.359 -3.313,-4.418 -7.727,-8.84 -1.106,-13.25 6.621,-4.41 18.762,-12.149 36.438,-13.25 17.656,-1.098 34.207,-23.18 52.988,-23.18 18.769,0 11.035,-3.309 18.769,0 -13.253,-9.93 -13.253,-15.441 -27.597,-14.352 -14.356,1.114 -38.653,5.524 -47.481,2.211 -6.621,-8.828 -40.84,-57.398 35.332,-164.48 27.313,-38.399 44.082,-64.418 54.727,-84.277 -0.781,-0.321 -1.563,-0.633 -2.344,-0.954 0.789,0.321 1.551,0.614 2.344,0.942 19.012,-35.508 18.301,-51.25 22.539,-82.399 6.629,-48.582 9.939,-97.14 64.029,-85 -3.31,-8.839 -30.91,-17.679 -62.916,1.09 z m -277.09,76.168 c -18.765,-8.828 -37.531,0 -35.324,16.571 0.434,3.25 1.008,6.23 1.692,9.039 h 0.003 c -8.269,0.023 -16.222,0.23 -23.894,0.601 0,-0.012 0,-0.012 0,-0.012 -0.281,-13.617 0.187,-24.718 2.332,-27.289 5.516,-6.629 6.621,-13.257 -6.625,-25.398 -9.938,-2.211 -25.398,1.098 -34.227,0 8.836,9.937 16.567,20.98 17.668,40.848 0.188,3.39 0.211,7.972 0.164,13.293 0,0.007 0,0.007 0,0.019 -0.218,25.93 -2.16,71.098 4.25,100.391 7.723,35.32 17.661,69.547 43.051,96.039 4.414,4.418 -2.207,41.961 -8.832,43.051 0,0 -30.906,-41.954 -40.84,-50.782 -6.625,-7.718 -9.937,-1.101 -9.937,-1.101 0,0 0.305,0.429 0.859,1.25 5.133,7.562 31.586,48.222 35.571,87.07 4.414,43.043 12.14,88.301 44.156,110.391 20.972,13.242 36.426,6.621 46.359,2.199 9.934,-4.41 16.567,-14.34 29.813,-19.867 -7.731,-7.723 -15.457,-16.551 -15.457,-16.551 0,0 -23.184,-3.313 -36.43,0 -17.664,-9.941 -41.941,-168.91 75.07,-262.742 -1.105,-9.938 -5.527,-20.969 -17.664,-20.969 -12.14,0 -64.027,58.5 -76.172,89.41 -3.312,6.621 -20.972,8.84 -24.285,-8.828 -3.312,-17.66 -11.043,-66.242 -25.39,-90.523 -0.672,-10.789 -2.989,-38.469 -3.434,-59.899 7.664,-0.371 15.637,-0.558 23.898,-0.57 2.813,11.512 8.411,19.398 22.59,22.941 9.637,2.41 26.492,-1.109 28.699,-14.351 0.348,-2.071 0.59,-4.121 0.719,-6.129 10.457,0.969 21.254,2.219 32.442,3.84 -11.168,-1.621 -21.996,-2.911 -32.438,-3.879 v -0.012 c 0.68,-10.809 -2.586,-20.609 -18.387,-28.051 z m -37.531,461.449 c 22.082,12.141 27.598,-24.296 25.391,-29.816 -12.137,-2.191 -20.977,-14.344 -20.977,-14.344 -11.039,-1.117 -26.492,32.012 -4.414,44.16 z M 1026.44,579.32 c -20.16,-9.738 -39.725,-18.519 -58.702,-26.429 18.977,7.91 38.542,16.699 58.702,26.429 z m 142.61,-168.5 c 4.41,50.789 -22.08,71.762 -30.91,81.692 -3.59,22.449 -18.87,89.468 -29.2,130.328 -2.36,9.351 -4.47,17.351 -6.12,23.109 -8.84,30.91 -33.12,128.063 -37.53,149.039 -9.94,-23.187 -29.81,-43.058 -29.81,-43.058 0,0 46.37,-58.5 52.99,-134.68 0.18,-1.91 0.37,-3.719 0.55,-5.59 13.15,-133.801 29.33,-148.051 34.77,-162.199 5.52,-14.359 35.33,-45.262 45.26,-57.402 9.93,-12.137 1.1,-19.868 -4.41,-18.77 -5.52,1.09 -13.25,3.313 -27.6,-2.207 -26.5,-8.832 -16.56,7.727 -12.14,27.598 4.41,19.871 -7.74,38.629 -12.15,46.371 -49.68,68.437 -60.7,129.16 -64.03,142.398 -0.21,0.883 -0.52,1.672 -0.8,2.5 -3.77,11.653 -12.14,18.102 -23.48,12.949 -12.14,-5.507 -37.53,-28.687 -44.163,-29.796 -3.308,9.929 -9.929,19.867 -15.449,27.597 5.52,6.621 41.942,36.43 51.882,43.051 9.93,6.621 13.25,17.648 15.45,34.219 2.22,16.562 -2.2,28.711 -20.97,57.402 -18.764,28.699 -26.487,24.301 -39.741,22.078 -13.25,-2.211 -32.011,-22.078 -41.941,-22.078 -9.942,0 -12.149,-3.312 -23.184,-5.519 -11.035,-2.204 -13.242,-4.411 -16.562,-2.211 -5.52,6.629 -4.414,25.39 0,24.289 29.804,-4.41 41.953,11.05 49.676,19.871 7.726,8.828 39.738,43.051 45.265,48.57 -8.828,3.32 -30.918,14.348 -40.851,28.711 -9.93,14.359 0,30.906 29.804,35.316 29.804,4.422 28.704,-45.25 28.704,-50.777 7.73,2.211 33.12,1.098 38.63,0 5.53,-1.101 8.84,-4.41 20.98,-15.449 -2.2,9.93 4.41,19.859 6.63,30.91 13.25,61.828 -13.25,64.02 -39.74,72.859 -26.5,8.829 -129.157,7.731 -178.844,7.731 -49.668,0 -204.219,16.547 -204.219,16.547 14.348,-43.047 -3.317,-55.199 -9.938,-68.438 4.418,-17.672 25.387,-19.871 25.387,-19.871 0,0 -4.414,-15.449 -19.867,-39.738 -15.457,-24.301 -28.703,-94.942 -26.496,-149.031 2.207,-54.09 -8.828,-107.082 -18.766,-155.661 -1.219,-5.968 -2.191,-11.64 -2.953,-16.968 -5.445,-37.973 -0.355,-59.203 -0.355,-59.203 -9.938,1.121 -17.668,0 -32.016,-1.098 6.109,22.051 10.797,43.777 14.379,64.32 11.273,64.848 11.316,117.918 8.801,132.18 -21.039,-40.172 -27.172,-79.531 -34.895,-124.512 -1.191,-6.918 -2.418,-13.98 -3.742,-21.211 -9.938,-54.09 -38.637,-67.328 -38.637,-67.328 0,0 99.356,9.93 196.5,2.199 97.137,-7.718 205.332,-40.847 314.621,-62.918 109.28,-22.082 192.08,-12.152 204.22,-9.941 12.13,2.219 16.56,-7.719 29.8,-15.461 -26.49,54.09 -66.23,66.242 -82.79,77.281 z" /></clipPath><linearGradient
       id="linearGradient186"
       spreadMethod="pad"
       gradientTransform="matrix(463.595,432.164,432.164,-463.595,637.918,350.06)"
       gradientUnits="userSpaceOnUse"
       y2="0"
       x2="1"
       y1="0"
       x1="0"><stop
         id="stop178"
         offset="0"
         style="stop-opacity:1;stop-color:#a4d684" /><stop
         id="stop180"
         offset="0.168539"
         style="stop-opacity:1;stop-color:#96d5c7" /><stop
         id="stop182"
         offset="0.511236"
         style="stop-opacity:1;stop-color:#4db1db" /><stop
         id="stop184"
         offset="1"
         style="stop-opacity:1;stop-color:#26469b" /></linearGradient><clipPath
       id="clipPath196"
       clipPathUnits="userSpaceOnUse"><path
         id="path194"
         d="m 841.188,525.629 c 0,0 7.734,8.832 11.035,15.461 4.179,-6.692 8.672,-15.57 12.402,-24.66 24.316,7.011 49.844,15.539 76.641,25.859 -13.34,22.852 -31.387,47.121 -55.918,71.652 -3.321,5.52 -6.633,-0.011 -11.047,-8.839 -4.403,-8.821 -14.344,-25.391 -25.379,-43.043 -9.981,-15.95 -39.727,-48.071 -57.598,-63.09 0.047,0.011 0.098,0.019 0.141,0.031 5.406,1 10.894,2.09 16.449,3.25 0.266,0.059 0.531,0.121 0.801,0.172 5.605,1.18 11.285,2.437 17.051,3.808 0.031,0 0.062,0.008 0.097,0.02 7.082,1.66 14.309,3.512 21.621,5.461 -2.097,4.961 -4.246,9.809 -6.296,13.918 z" /></clipPath><linearGradient
       id="linearGradient206"
       spreadMethod="pad"
       gradientTransform="matrix(149.941,0,0,-149.941,791.323,557.56)"
       gradientUnits="userSpaceOnUse"
       y2="0"
       x2="1"
       y1="0"
       x1="0"><stop
         id="stop198"
         offset="0"
         style="stop-opacity:1;stop-color:#a4d684" /><stop
         id="stop200"
         offset="0.168539"
         style="stop-opacity:1;stop-color:#96d5c7" /><stop
         id="stop202"
         offset="0.511236"
         style="stop-opacity:1;stop-color:#4db1db" /><stop
         id="stop204"
         offset="1"
         style="stop-opacity:1;stop-color:#26469b" /></linearGradient><clipPath
       id="clipPath216"
       clipPathUnits="userSpaceOnUse"><path
         id="path214"
         d="m 636.023,490.371 v 0 c 0.137,-0.012 0.27,-0.031 0.407,-0.039 -0.129,0.008 -0.27,0.027 -0.407,0.039 z" /></clipPath><linearGradient
       id="linearGradient226"
       spreadMethod="pad"
       gradientTransform="matrix(0.405,0,0,-0.405,636.025,490.35)"
       gradientUnits="userSpaceOnUse"
       y2="0"
       x2="1"
       y1="0"
       x1="0"><stop
         id="stop218"
         offset="0"
         style="stop-opacity:1;stop-color:#a4d684" /><stop
         id="stop220"
         offset="0.168539"
         style="stop-opacity:1;stop-color:#96d5c7" /><stop
         id="stop222"
         offset="0.511236"
         style="stop-opacity:1;stop-color:#4db1db" /><stop
         id="stop224"
         offset="1"
         style="stop-opacity:1;stop-color:#26469b" /></linearGradient><clipPath
       id="clipPath236"
       clipPathUnits="userSpaceOnUse"><path
         id="path234"
         d="m 636.93,490.281 c -0.297,0.02 -0.614,0.039 -0.907,0.071 0.329,-0.032 0.68,-0.051 1.008,-0.082 -0.035,0 -0.066,0 -0.101,0.011 z" /></clipPath><linearGradient
       id="linearGradient246"
       spreadMethod="pad"
       gradientTransform="matrix(1.006,0,0,-1.006,636.025,490.31)"
       gradientUnits="userSpaceOnUse"
       y2="0"
       x2="1"
       y1="0"
       x1="0"><stop
         id="stop238"
         offset="0"
         style="stop-opacity:1;stop-color:#a4d684" /><stop
         id="stop240"
         offset="0.168539"
         style="stop-opacity:1;stop-color:#96d5c7" /><stop
         id="stop242"
         offset="0.511236"
         style="stop-opacity:1;stop-color:#4db1db" /><stop
         id="stop244"
         offset="1"
         style="stop-opacity:1;stop-color:#26469b" /></linearGradient><clipPath
       id="clipPath256"
       clipPathUnits="userSpaceOnUse"><path
         id="path254"
         d="m 656.266,488.93 c 0.152,-0.008 0.297,-0.008 0.445,-0.02 v 0 c -0.148,0.012 -0.301,0.012 -0.445,0.02 z" /></clipPath><linearGradient
       id="linearGradient266"
       spreadMethod="pad"
       gradientTransform="matrix(0.445,0,0,-0.445,656.264,488.92)"
       gradientUnits="userSpaceOnUse"
       y2="0"
       x2="1"
       y1="0"
       x1="0"><stop
         id="stop258"
         offset="0"
         style="stop-opacity:1;stop-color:#a4d684" /><stop
         id="stop260"
         offset="0.168539"
         style="stop-opacity:1;stop-color:#96d5c7" /><stop
         id="stop262"
         offset="0.511236"
         style="stop-opacity:1;stop-color:#4db1db" /><stop
         id="stop264"
         offset="1"
         style="stop-opacity:1;stop-color:#26469b" /></linearGradient><clipPath
       id="clipPath276"
       clipPathUnits="userSpaceOnUse"><path
         id="path274"
         d="m 655.781,488.961 c 0.313,-0.02 0.614,-0.039 0.93,-0.063 -0.223,0.024 -0.426,0.032 -0.648,0.043 -0.098,0.008 -0.188,0.008 -0.282,0.02 z" /></clipPath><linearGradient
       id="linearGradient286"
       spreadMethod="pad"
       gradientTransform="matrix(0.928,0,0,-0.928,655.781,488.93)"
       gradientUnits="userSpaceOnUse"
       y2="0"
       x2="1"
       y1="0"
       x1="0"><stop
         id="stop278"
         offset="0"
         style="stop-opacity:1;stop-color:#a4d684" /><stop
         id="stop280"
         offset="0.168539"
         style="stop-opacity:1;stop-color:#96d5c7" /><stop
         id="stop282"
         offset="0.511236"
         style="stop-opacity:1;stop-color:#4db1db" /><stop
         id="stop284"
         offset="1"
         style="stop-opacity:1;stop-color:#26469b" /></linearGradient><clipPath
       id="clipPath296"
       clipPathUnits="userSpaceOnUse"><path
         id="path294"
         d="m 941.266,542.289 v 0 c 0.332,0.141 0.664,0.262 0.996,0.391 -0.332,-0.121 -0.664,-0.25 -0.996,-0.391 z" /></clipPath><linearGradient
       id="linearGradient306"
       spreadMethod="pad"
       gradientTransform="matrix(0.996,0,0,-0.996,941.264,542.49)"
       gradientUnits="userSpaceOnUse"
       y2="0"
       x2="1"
       y1="0"
       x1="0"><stop
         id="stop298"
         offset="0"
         style="stop-opacity:1;stop-color:#a4d684" /><stop
         id="stop300"
         offset="0.168539"
         style="stop-opacity:1;stop-color:#96d5c7" /><stop
         id="stop302"
         offset="0.511236"
         style="stop-opacity:1;stop-color:#4db1db" /><stop
         id="stop304"
         offset="1"
         style="stop-opacity:1;stop-color:#26469b" /></linearGradient><clipPath
       id="clipPath316"
       clipPathUnits="userSpaceOnUse"><path
         id="path314"
         d="m 790.113,498.75 c 0.399,0.07 0.77,0.109 1.172,0.191 -0.398,-0.082 -0.758,-0.109 -1.152,-0.191 z" /></clipPath><linearGradient
       id="linearGradient326"
       spreadMethod="pad"
       gradientTransform="matrix(1.172,0,0,-1.172,790.112,498.85)"
       gradientUnits="userSpaceOnUse"
       y2="0"
       x2="1"
       y1="0"
       x1="0"><stop
         id="stop318"
         offset="0"
         style="stop-opacity:1;stop-color:#a4d684" /><stop
         id="stop320"
         offset="0.168539"
         style="stop-opacity:1;stop-color:#96d5c7" /><stop
         id="stop322"
         offset="0.511236"
         style="stop-opacity:1;stop-color:#4db1db" /><stop
         id="stop324"
         offset="1"
         style="stop-opacity:1;stop-color:#26469b" /></linearGradient><clipPath
       id="clipPath336"
       clipPathUnits="userSpaceOnUse"><path
         id="path334"
         d="m 766.508,494.84 c -0.395,-0.059 -0.781,-0.121 -1.172,-0.16 h -0.004 c 0.356,0.039 0.715,0.09 1.07,0.14 0.028,0.012 0.067,0.02 0.106,0.02 z" /></clipPath><linearGradient
       id="linearGradient346"
       spreadMethod="pad"
       gradientTransform="matrix(1.176,0,0,-1.176,765.332,494.76)"
       gradientUnits="userSpaceOnUse"
       y2="0"
       x2="1"
       y1="0"
       x1="0"><stop
         id="stop338"
         offset="0"
         style="stop-opacity:1;stop-color:#a4d684" /><stop
         id="stop340"
         offset="0.168539"
         style="stop-opacity:1;stop-color:#96d5c7" /><stop
         id="stop342"
         offset="0.511236"
         style="stop-opacity:1;stop-color:#4db1db" /><stop
         id="stop344"
         offset="1"
         style="stop-opacity:1;stop-color:#26469b" /></linearGradient><clipPath
       id="clipPath356"
       clipPathUnits="userSpaceOnUse"><path
         id="path354"
         d="m 943.668,543.219 c -0.781,-0.297 -1.602,-0.649 -2.383,-0.957 0.84,0.328 1.719,0.707 2.578,1.027 -0.07,-0.019 -0.136,-0.051 -0.195,-0.07 z" /></clipPath><linearGradient
       id="linearGradient366"
       spreadMethod="pad"
       gradientTransform="matrix(2.578,0,0,-2.578,941.284,542.78)"
       gradientUnits="userSpaceOnUse"
       y2="0"
       x2="1"
       y1="0"
       x1="0"><stop
         id="stop358"
         offset="0"
         style="stop-opacity:1;stop-color:#a4d684" /><stop
         id="stop360"
         offset="0.168539"
         style="stop-opacity:1;stop-color:#96d5c7" /><stop
         id="stop362"
         offset="0.511236"
         style="stop-opacity:1;stop-color:#4db1db" /><stop
         id="stop364"
         offset="1"
         style="stop-opacity:1;stop-color:#26469b" /></linearGradient><clipPath
       id="clipPath376"
       clipPathUnits="userSpaceOnUse"><path
         id="path374"
         d="m 1276.14,278.352 c -25.39,-81.68 -150.15,-41.954 -411.769,28.699 -83.203,22.469 -152.879,32.711 -209.351,36.07 92.203,-20.699 267.906,-69.062 480.58,-171.109 67.61,10.847 123.2,19.476 168.6,26.308 -9.59,29.84 -21.53,65 -28.06,80.032 z" /></clipPath><linearGradient
       id="linearGradient382"
       spreadMethod="pad"
       gradientTransform="matrix(894.144,-111.573,-111.573,-894.144,455.348,318.83)"
       gradientUnits="userSpaceOnUse"
       y2="0"
       x2="1"
       y1="0"
       x1="0"><stop
         id="stop378"
         offset="0"
         style="stop-opacity:1;stop-color:#95ca22" /><stop
         id="stop380"
         offset="1"
         style="stop-opacity:1;stop-color:#226d34" /></linearGradient><clipPath
       id="clipPath392"
       clipPathUnits="userSpaceOnUse"><path
         id="path390"
         d="m 855.543,145.879 c 0,0 -243.973,58.5 -363.195,29.812 -8.59,-2.07 107.086,65.129 360.988,8.829 54.5,-12.079 104.383,-23.75 149.664,-34.141 -1.19,-0.188 91.78,15.082 132.6,21.633 C 922.926,274.059 747.223,322.422 655.02,343.121 533.902,350.32 473.699,325.75 472.477,321.398 463.113,288.121 432.203,180.379 424.969,153.27 c 37.672,-29.809 141.703,-72.4614 475.926,-19.75 -0.059,-0.02 -0.129,-0.02 -0.196,-0.04 -27.617,7.59 -45.156,12.399 -45.156,12.399 z" /></clipPath><linearGradient
       id="linearGradient398"
       spreadMethod="pad"
       gradientTransform="matrix(894.108,-111.568,-111.568,-894.108,446.481,247.32)"
       gradientUnits="userSpaceOnUse"
       y2="0"
       x2="1"
       y1="0"
       x1="0"><stop
         id="stop394"
         offset="0"
         style="stop-opacity:1;stop-color:#95ca22" /><stop
         id="stop396"
         offset="1"
         style="stop-opacity:1;stop-color:#226d34" /></linearGradient><clipPath
       id="clipPath408"
       clipPathUnits="userSpaceOnUse"><path
         id="path406"
         d="m 1318.08,152.512 c -1.81,7.199 -7.28,25.238 -13.88,45.808 -45.4,-6.832 -111.32,-16.629 -168.6,-26.308 -39.83,-6.403 -83.95,-13.582 -132.6,-21.633 113.63,-26.047 198.09,-43.988 252.56,-39.828 36.49,2.75 43.63,8.449 55.9,20.98 16.55,-9.929 64.31,-56.031 37.53,-81.6912 -26.5,-25.3906 -68.44,-20.9804 -103.77,-11.0312 -15.53,4.3633 -245.243,67.4294 -344.521,94.6714 -334.078,-52.648 -438.062,-10.019 -475.73,19.79 -0.442,-1.661 -0.809,-3.059 -1.063,-4.071 -27.597,-12.148 -52.988,-52.9881 -54.097,-91.6287 -1.102,-38.6406 26.496,-56.30077 60.722,-55.19139 31.071,1 216.367,73.96089 417.278,79.47269 168.891,3.3203 395.201,-69.543 429.431,-77.26957 34.22,-7.73047 97.14,-11.04297 113.7,35.31637 16.55,46.3711 -61.81,104.8826 -72.86,112.6136 z" /></clipPath><linearGradient
       id="linearGradient414"
       spreadMethod="pad"
       gradientTransform="matrix(700.864,-28.2868,-28.2868,-700.864,395.427,119.27)"
       gradientUnits="userSpaceOnUse"
       y2="0"
       x2="1"
       y1="0"
       x1="0"><stop
         id="stop410"
         offset="0"
         style="stop-opacity:1;stop-color:#95ca22" /><stop
         id="stop412"
         offset="1"
         style="stop-opacity:1;stop-color:#226d34" /></linearGradient></defs><g
     transform="matrix(1.3333333,0,0,-1.3333333,0,329.94667)"
     id="g10"><g
       transform="scale(0.1)"
       id="g12"><path
         id="path14"
         style="fill:#8bcbe3;fill-opacity:1;fill-rule:nonzero;stroke:none"
         d="m 309.637,1913.63 c 14.445,-25.38 28.914,-51.67 40.383,-72.19 13.543,-24.24 43.843,-90.37 76.246,-163.68 -4.625,33.59 -8.43,65.17 -11.496,94.83 -60.204,102.67 -90.707,132.89 -105.133,141.04" /><path
         id="path16"
         style="fill:#93d3e0;fill-opacity:1;fill-rule:nonzero;stroke:none"
         d="m 693.262,1100.77 c -14.922,28.6 -52.254,163.67 -86.364,295.53 -84.742,180.8 -146.839,299.04 -192.128,376.29 3.066,-29.66 6.871,-61.24 11.496,-94.83 42.074,-95.19 87.699,-202.48 104.824,-245.99 30.312,-77.02 40.144,-113.89 37.687,-117.98 -2.453,-4.1 -9.832,-4.1 -13.109,-1.64 -7.059,5.3 -3.277,16.39 -19.66,16.39 -8.195,0 -18.852,-4.1 -22.125,-22.12 11.586,-16.88 22.125,-49.98 19.664,-35.24 -2.457,14.75 -2.457,27.04 13.93,27.04 16.875,0 26.562,-34.07 26.562,-34.07 17.66,-50.78 35.324,-108.19 59.613,-163.38 24.282,-55.19 52.989,-83.9 66.235,-79.48 13.246,4.42 19.871,28.7 -6.625,79.48" /><path
         id="path18"
         style="fill:#569ed5;fill-opacity:1;fill-rule:nonzero;stroke:none"
         d="m 414.77,1772.59 c 45.289,-77.25 107.386,-195.49 192.128,-376.29 -26.445,102.24 -50.953,202.56 -61.562,249.81 -21.949,97.78 -70.953,280.32 -129.082,480.8 -11.875,-62.75 -20.309,-172.57 -1.484,-354.32" /><path
         id="path20"
         style="fill:#5c9dd5;fill-opacity:1;fill-rule:nonzero;stroke:none"
         d="M 5.33203,2070.46 C 1.83203,2067.4 0,2065.6 0,2065.6 c 60.332,11.81 126.699,-42.92 189.82,-124.17 -8.242,37.88 -17.019,71.43 -25.683,100.85 -69.2503,37.24 -124.2503,36.12 -158.80497,28.18" /><path
         id="path22"
         style="fill:#397ec5;fill-opacity:1;fill-rule:nonzero;stroke:none"
         d="m 164.137,2042.28 c -12.414,42.09 -24.621,75.61 -34.778,100.54 -69.6481,-28.21 -110.3199,-60.4 -124.02697,-72.36 34.55467,7.94 89.55467,9.06 158.80497,-28.18" /><path
         id="path24"
         style="fill:#458bce;fill-opacity:1;fill-rule:nonzero;stroke:none"
         d="m 250.879,2002.02 c 9.316,-4.13 34,-44.89 58.758,-88.39 14.426,-8.15 44.929,-38.37 105.133,-141.04 -18.825,181.75 -10.391,291.57 1.484,354.32 -6.188,21.34 -12.469,42.88 -18.844,64.53 -115.023,0 -203.801,-22.58 -268.051,-48.62 10.157,-24.93 22.364,-58.45 34.778,-100.54 23.523,-12.65 48.691,-29.76 75.261,-52.52 -5.707,10.63 3.391,15.86 11.481,12.26" /><path
         id="path26"
         style="fill:#92d1e4;fill-opacity:1;fill-rule:nonzero;stroke:none"
         d="m 458.168,1448.16 c -40.965,149.93 -213.023,530.92 -218.758,541.57 -0.008,0.01 -0.008,0.02 -0.012,0.03 -26.57,22.76 -51.738,39.87 -75.261,52.52 8.664,-29.42 17.441,-62.97 25.683,-100.85 132.157,-170.13 250.047,-456.67 268.348,-493.27" /><path
         id="path28"
         style="fill:#7eb9df;fill-opacity:1;fill-rule:nonzero;stroke:none"
         d="m 921.695,1630.52 c -85.011,-100.59 -170.367,-136.23 -212.468,-148.39 16.226,-100.39 26.531,-164.94 22.671,-166.1 -26.492,-6.62 -5.515,16.56 -32.011,14.35 -26.492,-2.21 -32.012,-27.59 -32.012,-27.59 l 14.586,-61.48 c -2.465,11.58 -7.57,47.99 22.945,58.17 36.426,12.14 65.129,-126.95 75.067,-207.54 9.937,-80.59 50.781,-97.151 62.922,-97.151 12.597,0 22.078,5.521 34.226,25.391 6.934,11.34 24.289,71.96 40.996,128.26 7.617,141.43 7.121,314.51 3.078,482.08" /><path
         id="path30"
         style="fill:#3576c2;fill-opacity:1;fill-rule:nonzero;stroke:none"
         d="m 921.695,1630.52 c 4.043,-167.57 4.539,-340.65 -3.078,-482.08 12.559,42.34 24.758,82.25 31.867,96.94 16.563,34.23 41.942,19.87 44.149,27.6 2.207,7.72 5.517,18.77 11.047,32.01 -13.254,0 -19.875,-1.1 -48.575,-5.51 44.945,127.53 78.715,263.01 104.025,390.79 -31.6,0.87 -60.99,4.16 -88.333,9.48 -16.785,-25.96 -33.934,-48.92 -51.102,-69.23" /><path
         id="path32"
         style="fill:#2e489f;fill-opacity:1;fill-rule:nonzero;stroke:none"
         d="m 972.797,1699.75 c 27.343,-5.32 56.733,-8.61 88.333,-9.48 32.27,162.91 50.76,313.28 61,418.62 -34.03,-185.14 -89.28,-316.28 -149.333,-409.14" /><path
         id="path34"
         style="fill:#558fd0;fill-opacity:1;fill-rule:nonzero;stroke:none"
         d="m 921.695,1630.52 c 17.168,20.31 34.317,43.27 51.102,69.23 -18.738,3.65 -36.531,8.23 -53.399,13.68 0.852,-27.38 1.614,-55.06 2.297,-82.91" /><path
         id="path36"
         style="fill:#8bbce1;fill-opacity:1;fill-rule:nonzero;stroke:none"
         d="m 919.398,1713.43 c -188.39,60.84 -262.566,226.32 -290.957,328.7 23.438,-206.77 57.969,-418.85 80.786,-560 42.101,12.16 127.457,47.8 212.468,148.39 -0.683,27.85 -1.445,55.53 -2.297,82.91" /><path
         id="path38"
         style="fill:#834ca7;fill-opacity:1;fill-rule:nonzero;stroke:none"
         d="m 1274.31,1942.68 c -27.74,-127.22 -57.28,-253.72 -77.66,-315.34 -45.26,-136.89 -125.84,-360.99 -130.26,-369.82 -4.42,-8.83 -13.25,-4.41 -13.25,4.42 0,8.83 -1.09,32.01 -13.24,30.91 -12.15,-1.1 -14.36,-34.22 -14.36,-34.22 0,0 16.55,-20.98 -4.41,-77.28 -20.98,-56.29 -58.517,-160.06 -59.61,-175.52 0,0 -3.321,-34.221 9.929,-37.529 13.254,-3.313 32.011,11.031 46.371,33.109 13.39,20.6 79.58,154.49 103.65,191.22 75.13,165.86 135.05,330.05 182.57,481.91 -23.9,104.5 -29.84,198.96 -29.73,268.14" /><path
         id="path40"
         style="fill:#8461b3;fill-opacity:1;fill-rule:nonzero;stroke:none"
         d="m 1347.89,2295.21 c -8.5,-40.67 -39.69,-197.14 -73.58,-352.53 -0.11,-69.18 5.83,-163.64 29.73,-268.14 103.68,331.29 148.33,603.84 162.84,706.76 -35.48,-23.29 -75.62,-51.75 -118.99,-86.09" /><path
         id="path42"
         style="fill:#683f9c;fill-opacity:1;fill-rule:nonzero;stroke:none"
         d="m 1150.29,1253.11 c 6.92,11.33 86.02,145.5 173.6,346.73 -7.7,25.32 -14.27,50.27 -19.85,74.7 -47.52,-151.86 -107.44,-316.05 -182.57,-481.91 1.74,2.64 3.27,4.83 4.54,6.39 18.76,23.18 50.77,51.88 50.77,2.21 0,-49.68 -113.7,-242.871 -113.7,-242.871 0,0 -11.03,-15.461 -1.11,-9.929 9.94,5.519 139.1,185.45 139.1,305.78 -11.05,0 -32.02,1.1 -50.78,-1.1" /><path
         id="path44"
         style="fill:#821c82;fill-opacity:1;fill-rule:nonzero;stroke:none"
         d="m 1622.77,2468.53 c 0,0 -61.33,-25.14 -155.89,-87.23 -14.51,-102.92 -59.16,-375.47 -162.84,-706.76 5.58,-24.43 12.15,-49.38 19.85,-74.7 66,151.61 136.79,341.27 185.18,545.24 24.28,103.77 90.5,279.29 124.73,322.34 9.93,15.46 -11.03,1.11 -11.03,1.11" /><path
         id="path46"
         style="fill:#bdcee6;fill-opacity:1;fill-rule:nonzero;stroke:none"
         d="m 369.813,1351.36 c 0,0 -259.422,-398.508 101.558,-757.278 4.422,27.59 58.516,209.738 117.024,290.316 -1.11,13.25 -57.403,303.592 -218.582,466.962" /><path
         id="path48"
         style="fill:#899dd3;fill-opacity:1;fill-rule:nonzero;stroke:none"
         d="m 1330.23,1370.13 c -58.51,-304.68 -213.07,-486.829 -213.07,-486.829 54.1,-210.86 99.36,-302.469 103.77,-315.711 420.6,363.18 129.17,770.52 109.3,802.54" /><g
         id="g50"><g
           clip-path="url(#clipPath56)"
           id="g52"><path
             id="path68"
             style="fill:url(#linearGradient66);fill-opacity:1;fill-rule:nonzero;stroke:none"
             d="m 967.672,552.84 c 0,0.012 0,0.012 0,0.012 -0.781,-0.321 -1.563,-0.633 -2.344,-0.954 0.789,0.321 1.551,0.614 2.344,0.942" /></g></g><g
         id="g70"><g
           clip-path="url(#clipPath76)"
           id="g72"><path
             id="path88"
             style="fill:url(#linearGradient86);fill-opacity:1;fill-rule:nonzero;stroke:none"
             d="m 766.402,494.82 c -0.367,-0.058 -0.742,-0.129 -1.089,-0.172 0.386,0.051 0.8,0.133 1.195,0.192 -0.039,0 -0.078,-0.008 -0.106,-0.02" /></g></g><g
         id="g90"><g
           clip-path="url(#clipPath96)"
           id="g92"><path
             id="path108"
             style="fill:url(#linearGradient106);fill-opacity:1;fill-rule:nonzero;stroke:none"
             d="m 943.863,543.289 c -0.547,-0.207 -1.074,-0.398 -1.601,-0.609 0.468,0.179 0.937,0.359 1.406,0.539 0.059,0.019 0.125,0.051 0.195,0.07" /></g></g><g
         id="g110"><g
           clip-path="url(#clipPath116)"
           id="g112"><path
             id="path128"
             style="fill:url(#linearGradient126);fill-opacity:1;fill-rule:nonzero;stroke:none"
             d="m 656.063,488.941 c 0.07,0 0.132,0 0.203,-0.011 -0.164,0.011 -0.325,0.019 -0.485,0.031 0.098,0 0.184,-0.012 0.282,-0.02" /></g></g><g
         id="g130"><g
           clip-path="url(#clipPath136)"
           id="g132"><path
             id="path148"
             style="fill:url(#linearGradient146);fill-opacity:1;fill-rule:nonzero;stroke:none"
             d="m 636.93,490.281 c 0.035,-0.011 0.066,-0.011 0.101,-0.011 -0.199,0.011 -0.394,0.039 -0.601,0.062 0.168,-0.023 0.332,-0.043 0.5,-0.051" /></g></g><g
         id="g150"><g
           clip-path="url(#clipPath156)"
           id="g152"><path
             id="path168"
             style="fill:url(#linearGradient166);fill-opacity:1;fill-rule:nonzero;stroke:none"
             d="m 790.113,498.75 h 0.02 c 0.394,0.07 0.793,0.148 1.191,0.219 v 0 c -0.402,-0.071 -0.812,-0.149 -1.211,-0.219" /></g></g><g
         id="g170"><g
           clip-path="url(#clipPath176)"
           id="g172"><path
             id="path188"
             style="fill:url(#linearGradient186);fill-opacity:1;fill-rule:nonzero;stroke:none"
             d="m 1075.22,416.34 c 0,-5.52 -4.41,-22.07 -19.87,-18.758 -15.45,3.309 -41.95,14.348 -39.74,39.727 0,0 1.1,29.82 30.91,19.882 29.8,-9.941 28.7,-35.339 28.7,-40.851 z m -83.896,-29.809 c -15.449,6.629 -11.035,6.629 -12.148,18.77 -0.832,9.179 3.34,66.269 -37.891,136.961 -0.012,0.008 -0.019,0.019 -0.019,0.027 -26.778,-10.309 -52.344,-18.898 -76.621,-25.91 6.121,-14.891 10.195,-30.27 7.46,-37.109 -4.425,-11.04 -9.941,-3.321 -13.253,4.41 -2.286,5.32 -6.668,16.91 -11.336,27.949 -7.356,-1.938 -14.551,-3.707 -21.653,-5.379 -0.035,-0.012 -0.066,-0.02 -0.097,-0.02 -5.766,-1.359 -11.446,-2.628 -17.051,-3.808 -0.27,-0.051 -0.535,-0.113 -0.801,-0.172 -5.555,-1.16 -11.043,-2.25 -16.449,-3.25 -0.043,-0.012 -0.098,-0.02 -0.141,-0.031 -0.015,-0.008 -0.031,-0.02 -0.039,-0.028 -1.906,-1.589 -3.703,-3.05 -5.293,-4.222 -16.558,-12.137 -26.5,-48.571 -4.422,-57.41 22.086,-8.829 29.817,-14.34 25.399,-17.649 -4.418,-3.32 -32.02,0 -46.375,9.93 -14.344,9.93 -34.586,13.551 -23.176,33.109 4.184,7.18 14.863,17.93 27.895,31.949 0.003,0.012 0.015,0.024 0.019,0.032 h 0.004 c 35.113,37.73 87.422,99.191 76.953,178.871 -4.414,32.008 -46.363,80.59 -46.363,80.59 0,0 -16.555,16.558 -23.184,-18.77 -6.621,-35.32 -11.031,-76.16 44.16,-114.812 4.411,4.421 4.411,4.421 4.411,4.421 l 2.21,-25.378 c 0,0 -89.421,58.5 -69.55,146.808 19.879,88.309 32.023,88.309 43.058,94.942 11.035,6.628 22.071,-5.52 20.973,6.628 0,0 -24.285,20.969 -22.078,36.418 2.203,15.454 9.929,30.911 35.32,25.391 25.399,-5.519 17.676,-41.949 14.356,-46.359 -3.313,-4.418 -7.727,-8.84 -1.106,-13.25 6.621,-4.41 18.762,-12.149 36.438,-13.25 17.656,-1.098 34.207,-23.18 52.988,-23.18 18.769,0 11.035,-3.309 18.769,0 -13.253,-9.93 -13.253,-15.441 -27.597,-14.352 -14.356,1.114 -38.653,5.524 -47.481,2.211 -6.621,-8.828 -40.84,-57.398 35.332,-164.48 27.313,-38.399 44.082,-64.418 54.727,-84.277 -0.781,-0.321 -1.563,-0.633 -2.344,-0.954 0.789,0.321 1.551,0.614 2.344,0.942 19.012,-35.508 18.301,-51.25 22.539,-82.399 6.629,-48.582 9.939,-97.14 64.029,-85 -3.31,-8.839 -30.91,-17.679 -62.916,1.09 z m -277.09,76.168 c -18.765,-8.828 -37.531,0 -35.324,16.571 0.434,3.25 1.008,6.23 1.692,9.039 h 0.003 c -8.269,0.023 -16.222,0.23 -23.894,0.601 0,-0.012 0,-0.012 0,-0.012 -0.281,-13.617 0.187,-24.718 2.332,-27.289 5.516,-6.629 6.621,-13.257 -6.625,-25.398 -9.938,-2.211 -25.398,1.098 -34.227,0 8.836,9.937 16.567,20.98 17.668,40.848 0.188,3.39 0.211,7.972 0.164,13.293 0,0.007 0,0.007 0,0.019 -0.218,25.93 -2.16,71.098 4.25,100.391 7.723,35.32 17.661,69.547 43.051,96.039 4.414,4.418 -2.207,41.961 -8.832,43.051 0,0 -30.906,-41.954 -40.84,-50.782 -6.625,-7.718 -9.937,-1.101 -9.937,-1.101 0,0 0.305,0.429 0.859,1.25 5.133,7.562 31.586,48.222 35.571,87.07 4.414,43.043 12.14,88.301 44.156,110.391 20.972,13.242 36.426,6.621 46.359,2.199 9.934,-4.41 16.567,-14.34 29.813,-19.867 -7.731,-7.723 -15.457,-16.551 -15.457,-16.551 0,0 -23.184,-3.313 -36.43,0 -17.664,-9.941 -41.941,-168.91 75.07,-262.742 -1.105,-9.938 -5.527,-20.969 -17.664,-20.969 -12.14,0 -64.027,58.5 -76.172,89.41 -3.312,6.621 -20.972,8.84 -24.285,-8.828 -3.312,-17.66 -11.043,-66.242 -25.39,-90.523 -0.672,-10.789 -2.989,-38.469 -3.434,-59.899 7.664,-0.371 15.637,-0.558 23.898,-0.57 2.813,11.512 8.411,19.398 22.59,22.941 9.637,2.41 26.492,-1.109 28.699,-14.351 0.348,-2.071 0.59,-4.121 0.719,-6.129 10.457,0.969 21.254,2.219 32.442,3.84 -11.168,-1.621 -21.996,-2.911 -32.438,-3.879 v -0.012 c 0.68,-10.809 -2.586,-20.609 -18.387,-28.051 z m -37.531,461.449 c 22.082,12.141 27.598,-24.296 25.391,-29.816 -12.137,-2.191 -20.977,-14.344 -20.977,-14.344 -11.039,-1.117 -26.492,32.012 -4.414,44.16 z M 1026.44,579.32 c -20.16,-9.738 -39.725,-18.519 -58.702,-26.429 18.977,7.91 38.542,16.699 58.702,26.429 z m 142.61,-168.5 c 4.41,50.789 -22.08,71.762 -30.91,81.692 -3.59,22.449 -18.87,89.468 -29.2,130.328 -2.36,9.351 -4.47,17.351 -6.12,23.109 -8.84,30.91 -33.12,128.063 -37.53,149.039 -9.94,-23.187 -29.81,-43.058 -29.81,-43.058 0,0 46.37,-58.5 52.99,-134.68 0.18,-1.91 0.37,-3.719 0.55,-5.59 13.15,-133.801 29.33,-148.051 34.77,-162.199 5.52,-14.359 35.33,-45.262 45.26,-57.402 9.93,-12.137 1.1,-19.868 -4.41,-18.77 -5.52,1.09 -13.25,3.313 -27.6,-2.207 -26.5,-8.832 -16.56,7.727 -12.14,27.598 4.41,19.871 -7.74,38.629 -12.15,46.371 -49.68,68.437 -60.7,129.16 -64.03,142.398 -0.21,0.883 -0.52,1.672 -0.8,2.5 -3.77,11.653 -12.14,18.102 -23.48,12.949 -12.14,-5.507 -37.53,-28.687 -44.163,-29.796 -3.308,9.929 -9.929,19.867 -15.449,27.597 5.52,6.621 41.942,36.43 51.882,43.051 9.93,6.621 13.25,17.648 15.45,34.219 2.22,16.562 -2.2,28.711 -20.97,57.402 -18.764,28.699 -26.487,24.301 -39.741,22.078 -13.25,-2.211 -32.011,-22.078 -41.941,-22.078 -9.942,0 -12.149,-3.312 -23.184,-5.519 -11.035,-2.204 -13.242,-4.411 -16.562,-2.211 -5.52,6.629 -4.414,25.39 0,24.289 29.804,-4.41 41.953,11.05 49.676,19.871 7.726,8.828 39.738,43.051 45.265,48.57 -8.828,3.32 -30.918,14.348 -40.851,28.711 -9.93,14.359 0,30.906 29.804,35.316 29.804,4.422 28.704,-45.25 28.704,-50.777 7.73,2.211 33.12,1.098 38.63,0 5.53,-1.101 8.84,-4.41 20.98,-15.449 -2.2,9.93 4.41,19.859 6.63,30.91 13.25,61.828 -13.25,64.02 -39.74,72.859 -26.5,8.829 -129.157,7.731 -178.844,7.731 -49.668,0 -204.219,16.547 -204.219,16.547 14.348,-43.047 -3.317,-55.199 -9.938,-68.438 4.418,-17.672 25.387,-19.871 25.387,-19.871 0,0 -4.414,-15.449 -19.867,-39.738 -15.457,-24.301 -28.703,-94.942 -26.496,-149.031 2.207,-54.09 -8.828,-107.082 -18.766,-155.661 -1.219,-5.968 -2.191,-11.64 -2.953,-16.968 -5.445,-37.973 -0.355,-59.203 -0.355,-59.203 -9.938,1.121 -17.668,0 -32.016,-1.098 6.109,22.051 10.797,43.777 14.379,64.32 11.273,64.848 11.316,117.918 8.801,132.18 -21.039,-40.172 -27.172,-79.531 -34.895,-124.512 -1.191,-6.918 -2.418,-13.98 -3.742,-21.211 -9.938,-54.09 -38.637,-67.328 -38.637,-67.328 0,0 99.356,9.93 196.5,2.199 97.137,-7.718 205.332,-40.847 314.621,-62.918 109.28,-22.082 192.08,-12.152 204.22,-9.941 12.13,2.219 16.56,-7.719 29.8,-15.461 -26.49,54.09 -66.23,66.242 -82.79,77.281" /></g></g><g
         id="g190"><g
           clip-path="url(#clipPath196)"
           id="g192"><path
             id="path208"
             style="fill:url(#linearGradient206);fill-opacity:1;fill-rule:nonzero;stroke:none"
             d="m 841.188,525.629 c 0,0 7.734,8.832 11.035,15.461 4.179,-6.692 8.672,-15.57 12.402,-24.66 24.316,7.011 49.844,15.539 76.641,25.859 -13.34,22.852 -31.387,47.121 -55.918,71.652 -3.321,5.52 -6.633,-0.011 -11.047,-8.839 -4.403,-8.821 -14.344,-25.391 -25.379,-43.043 -9.981,-15.95 -39.727,-48.071 -57.598,-63.09 0.047,0.011 0.098,0.019 0.141,0.031 5.406,1 10.894,2.09 16.449,3.25 0.266,0.059 0.531,0.121 0.801,0.172 5.605,1.18 11.285,2.437 17.051,3.808 0.031,0 0.062,0.008 0.097,0.02 7.082,1.66 14.309,3.512 21.621,5.461 -2.097,4.961 -4.246,9.809 -6.296,13.918" /></g></g><g
         id="g210"><g
           clip-path="url(#clipPath216)"
           id="g212"><path
             id="path228"
             style="fill:url(#linearGradient226);fill-opacity:1;fill-rule:nonzero;stroke:none"
             d="m 636.023,490.371 v 0 c 0.137,-0.012 0.27,-0.031 0.407,-0.039 -0.129,0.008 -0.27,0.027 -0.407,0.039" /></g></g><g
         id="g230"><g
           clip-path="url(#clipPath236)"
           id="g232"><path
             id="path248"
             style="fill:url(#linearGradient246);fill-opacity:1;fill-rule:nonzero;stroke:none"
             d="m 636.93,490.281 c -0.297,0.02 -0.614,0.039 -0.907,0.071 0.329,-0.032 0.68,-0.051 1.008,-0.082 -0.035,0 -0.066,0 -0.101,0.011" /></g></g><g
         id="g250"><g
           clip-path="url(#clipPath256)"
           id="g252"><path
             id="path268"
             style="fill:url(#linearGradient266);fill-opacity:1;fill-rule:nonzero;stroke:none"
             d="m 656.266,488.93 c 0.152,-0.008 0.297,-0.008 0.445,-0.02 v 0 c -0.148,0.012 -0.301,0.012 -0.445,0.02" /></g></g><g
         id="g270"><g
           clip-path="url(#clipPath276)"
           id="g272"><path
             id="path288"
             style="fill:url(#linearGradient286);fill-opacity:1;fill-rule:nonzero;stroke:none"
             d="m 655.781,488.961 c 0.313,-0.02 0.614,-0.039 0.93,-0.063 -0.223,0.024 -0.426,0.032 -0.648,0.043 -0.098,0.008 -0.188,0.008 -0.282,0.02" /></g></g><g
         id="g290"><g
           clip-path="url(#clipPath296)"
           id="g292"><path
             id="path308"
             style="fill:url(#linearGradient306);fill-opacity:1;fill-rule:nonzero;stroke:none"
             d="m 941.266,542.289 v 0 c 0.332,0.141 0.664,0.262 0.996,0.391 -0.332,-0.121 -0.664,-0.25 -0.996,-0.391" /></g></g><g
         id="g310"><g
           clip-path="url(#clipPath316)"
           id="g312"><path
             id="path328"
             style="fill:url(#linearGradient326);fill-opacity:1;fill-rule:nonzero;stroke:none"
             d="m 790.113,498.75 c 0.399,0.07 0.77,0.109 1.172,0.191 -0.398,-0.082 -0.758,-0.109 -1.152,-0.191 h -0.02" /></g></g><g
         id="g330"><g
           clip-path="url(#clipPath336)"
           id="g332"><path
             id="path348"
             style="fill:url(#linearGradient346);fill-opacity:1;fill-rule:nonzero;stroke:none"
             d="m 766.508,494.84 c -0.395,-0.059 -0.781,-0.121 -1.172,-0.16 h -0.004 c 0.356,0.039 0.715,0.09 1.07,0.14 0.028,0.012 0.067,0.02 0.106,0.02" /></g></g><g
         id="g350"><g
           clip-path="url(#clipPath356)"
           id="g352"><path
             id="path368"
             style="fill:url(#linearGradient366);fill-opacity:1;fill-rule:nonzero;stroke:none"
             d="m 943.668,543.219 c -0.781,-0.297 -1.602,-0.649 -2.383,-0.957 0.84,0.328 1.719,0.707 2.578,1.027 -0.07,-0.019 -0.136,-0.051 -0.195,-0.07" /></g></g><g
         id="g370"><g
           clip-path="url(#clipPath376)"
           id="g372"><path
             id="path384"
             style="fill:url(#linearGradient382);fill-opacity:1;fill-rule:nonzero;stroke:none"
             d="m 1276.14,278.352 c -25.39,-81.68 -150.15,-41.954 -411.769,28.699 -83.203,22.469 -152.879,32.711 -209.351,36.07 92.203,-20.699 267.906,-69.062 480.58,-171.109 67.61,10.847 123.2,19.476 168.6,26.308 -9.59,29.84 -21.53,65 -28.06,80.032" /></g></g><g
         id="g386"><g
           clip-path="url(#clipPath392)"
           id="g388"><path
             id="path400"
             style="fill:url(#linearGradient398);fill-opacity:1;fill-rule:nonzero;stroke:none"
             d="m 855.543,145.879 c 0,0 -243.973,58.5 -363.195,29.812 -8.59,-2.07 107.086,65.129 360.988,8.829 54.5,-12.079 104.383,-23.75 149.664,-34.141 -1.19,-0.188 91.78,15.082 132.6,21.633 C 922.926,274.059 747.223,322.422 655.02,343.121 533.902,350.32 473.699,325.75 472.477,321.398 463.113,288.121 432.203,180.379 424.969,153.27 c 37.672,-29.809 141.703,-72.4614 475.926,-19.75 -0.059,-0.02 -0.129,-0.02 -0.196,-0.04 -27.617,7.59 -45.156,12.399 -45.156,12.399" /></g></g><g
         id="g402"><g
           clip-path="url(#clipPath408)"
           id="g404"><path
             id="path416"
             style="fill:url(#linearGradient414);fill-opacity:1;fill-rule:nonzero;stroke:none"
             d="m 1318.08,152.512 c -1.81,7.199 -7.28,25.238 -13.88,45.808 -45.4,-6.832 -111.32,-16.629 -168.6,-26.308 -39.83,-6.403 -83.95,-13.582 -132.6,-21.633 113.63,-26.047 198.09,-43.988 252.56,-39.828 36.49,2.75 43.63,8.449 55.9,20.98 16.55,-9.929 64.31,-56.031 37.53,-81.6912 -26.5,-25.3906 -68.44,-20.9804 -103.77,-11.0312 -15.53,4.3633 -245.243,67.4294 -344.521,94.6714 -334.078,-52.648 -438.062,-10.019 -475.73,19.79 -0.442,-1.661 -0.809,-3.059 -1.063,-4.071 -27.597,-12.148 -52.988,-52.9881 -54.097,-91.6287 -1.102,-38.6406 26.496,-56.30077 60.722,-55.19139 31.071,1 216.367,73.96089 417.278,79.47269 168.891,3.3203 395.201,-69.543 429.431,-77.26957 34.22,-7.73047 97.14,-11.04297 113.7,35.31637 16.55,46.3711 -61.81,104.8826 -72.86,112.6136" /></g></g><path
         id="path418"
         style="fill:#1d1b19;fill-opacity:1;fill-rule:nonzero;stroke:none"
         d="m 1280.63,688.691 4.17,2.719 c 1.95,-2.691 2.84,-5.629 2.67,-8.801 -0.18,-3.168 -1.43,-6.129 -3.77,-8.859 -2.97,-3.461 -6.5,-5.309 -10.59,-5.559 -4.09,-0.25 -8.13,1.329 -12.1,4.731 -2.6,2.219 -4.43,4.648 -5.51,7.269 -1.08,2.629 -1.33,5.27 -0.75,7.918 0.59,2.653 1.88,5.153 3.89,7.493 2.23,2.609 4.71,4.25 7.45,4.918 2.72,0.66 5.44,0.39 8.12,-0.821 l -2.15,-4.238 c -1.96,0.66 -3.82,0.738 -5.58,0.258 -1.77,-0.5 -3.31,-1.508 -4.64,-3.071 -1.93,-2.257 -2.72,-4.808 -2.36,-7.66 0.36,-2.84 2.04,-5.558 5.05,-8.129 3.01,-2.578 5.87,-3.828 8.61,-3.769 2.73,0.07 5.04,1.199 6.92,3.41 1.52,1.77 2.34,3.762 2.45,5.98 0.13,2.211 -0.49,4.29 -1.88,6.211 z m -28.3,11.84 c -2.68,-3.133 -4.48,-6.859 -5.41,-11.191 -0.92,-4.328 -0.62,-8.602 0.94,-12.828 1.54,-4.223 3.93,-7.711 7.15,-10.473 3.21,-2.75 6.99,-4.559 11.33,-5.43 4.35,-0.871 8.61,-0.527 12.78,1.012 4.17,1.551 7.62,3.918 10.37,7.129 2.73,3.211 4.55,6.988 5.44,11.352 0.87,4.347 0.53,8.609 -1,12.75 -1.55,4.148 -3.92,7.597 -7.13,10.339 -3.23,2.75 -7.04,4.579 -11.44,5.481 -4.41,0.879 -8.68,0.527 -12.83,-1.07 -4.14,-1.614 -7.55,-3.954 -10.2,-7.071 z m -3.69,3.16 c 3.2,3.731 7.28,6.571 12.24,8.489 4.96,1.922 10.08,2.34 15.35,1.269 5.28,-1.07 9.85,-3.258 13.73,-6.57 3.83,-3.289 6.68,-7.418 8.55,-12.41 1.87,-4.981 2.28,-10.078 1.2,-15.278 -1.06,-5.211 -3.23,-9.742 -6.53,-13.601 -3.3,-3.852 -7.44,-6.719 -12.42,-8.57 -4.98,-1.86 -10.08,-2.25 -15.31,-1.18 -5.22,1.051 -9.75,3.23 -13.59,6.512 -3.87,3.308 -6.74,7.488 -8.6,12.546 -1.87,5.051 -2.24,10.184 -1.11,15.383 1.13,5.207 3.29,9.668 6.49,13.41" /><path
         id="path420"
         style="fill:#1d1b19;fill-opacity:1;fill-rule:nonzero;stroke:none"
         d="m 1343.99,746.762 5.59,-3.731 -20.81,-31.332 c -1.43,0.891 -2.62,2.012 -3.59,3.371 -1.6,2.211 -2.86,4.879 -3.76,8.012 -0.9,3.137 -1.61,7.258 -2.13,12.387 -0.8,7.961 -1.83,13.66 -3.1,17.121 -1.26,3.441 -3,5.898 -5.2,7.359 -2.3,1.531 -4.8,2 -7.48,1.403 -2.68,-0.59 -4.9,-2.223 -6.66,-4.872 -1.87,-2.808 -2.51,-5.601 -1.94,-8.41 0.56,-2.789 2.33,-5.191 5.28,-7.179 l -4.58,-5.582 c -4.19,3.371 -6.57,7.171 -7.14,11.41 -0.55,4.222 0.66,8.582 3.64,13.09 3.03,4.543 6.68,7.312 10.96,8.281 4.29,0.98 8.29,0.23 12.03,-2.238 1.9,-1.262 3.51,-2.891 4.82,-4.891 1.31,-1.992 2.39,-4.563 3.22,-7.699 0.83,-3.153 1.63,-7.981 2.38,-14.512 0.62,-5.441 1.11,-9.012 1.51,-10.699 0.39,-1.692 0.89,-3.199 1.52,-4.551 l 15.44,23.262" /><path
         id="path422"
         style="fill:#1d1b19;fill-opacity:1;fill-rule:nonzero;stroke:none"
         d="m 1333.4,770.871 c 8.18,-4.531 14.15,-6.59 17.91,-6.18 3.77,0.411 6.43,2.039 7.98,4.84 1.55,2.809 1.51,5.918 -0.15,9.328 -1.67,3.422 -6.57,7.391 -14.71,11.903 -8.21,4.539 -14.17,6.597 -17.93,6.179 -3.75,-0.421 -6.42,-2.062 -7.99,-4.91 -1.56,-2.801 -1.61,-5.699 -0.17,-8.691 1.87,-3.789 6.89,-7.949 15.06,-12.469 z m -3.47,-6.289 c -5.88,3.258 -10.3,6.488 -13.21,9.688 -2.92,3.199 -4.68,6.531 -5.32,10 -0.61,3.46 0.08,7.011 2.08,10.628 1.49,2.684 3.32,4.723 5.51,6.133 2.19,1.43 4.67,2.231 7.41,2.418 2.75,0.199 5.79,-0.14 9.12,-1.008 3.32,-0.859 7.45,-2.66 12.38,-5.39 5.84,-3.242 10.23,-6.449 13.16,-9.641 2.92,-3.18 4.7,-6.519 5.33,-9.988 0.64,-3.481 -0.06,-7.031 -2.08,-10.672 -2.66,-4.809 -6.46,-7.621 -11.42,-8.449 -5.96,-0.992 -13.62,1.097 -22.96,6.281" /><path
         id="path424"
         style="fill:#1d1b19;fill-opacity:1;fill-rule:nonzero;stroke:none"
         d="m 1353.74,809.301 c 8.53,-3.801 14.65,-5.352 18.36,-4.61 3.71,0.739 6.22,2.571 7.53,5.5 1.31,2.918 0.98,6.028 -0.95,9.278 -1.95,3.261 -7.17,6.793 -15.67,10.59 -8.55,3.812 -14.68,5.351 -18.38,4.613 -3.7,-0.742 -6.22,-2.602 -7.54,-5.582 -1.3,-2.93 -1.11,-5.82 0.59,-8.668 2.19,-3.621 7.54,-7.32 16.06,-11.121 z m -2.93,-6.551 c -6.14,2.738 -10.79,5.57 -13.97,8.512 -3.18,2.929 -5.23,6.097 -6.15,9.5 -0.92,3.386 -0.53,6.976 1.15,10.758 1.25,2.781 2.89,4.98 4.96,6.582 2.05,1.597 4.44,2.617 7.17,3.039 2.73,0.429 5.78,0.359 9.17,-0.219 3.38,-0.57 7.65,-2.024 12.79,-4.313 6.1,-2.718 10.74,-5.539 13.92,-8.461 3.18,-2.929 5.24,-6.089 6.17,-9.488 0.94,-3.398 0.55,-7 -1.15,-10.808 -2.24,-5.012 -5.78,-8.141 -10.65,-9.403 -5.85,-1.488 -13.65,-0.051 -23.41,4.301" /><path
         id="path426"
         style="fill:#1d1b19;fill-opacity:1;fill-rule:nonzero;stroke:none"
         d="m 1383.1,861.102 -24.29,8.289 18.53,-25.153 z m 18.95,-6.473 -12.9,4.402 -7.96,-23.371 -6.07,2.07 -26.51,36.5 1.85,5.399 34.9,-11.918 2.48,7.277 6.06,-2.066 -2.48,-7.281 12.89,-4.403 -2.26,-6.609" /><path
         id="path428"
         style="fill:#1d1b19;fill-opacity:1;fill-rule:nonzero;stroke:none"
         d="m 1366.37,949.84 1.29,7.422 32.4,-5.602 c 5.64,-0.988 10,-2.39 13.09,-4.25 3.09,-1.851 5.4,-4.621 6.89,-8.301 1.51,-3.687 1.79,-8.238 0.85,-13.64 -0.91,-5.27 -2.56,-9.41 -4.95,-12.438 -2.39,-3.019 -5.42,-4.949 -9.1,-5.781 -3.68,-0.84 -8.49,-0.738 -14.42,0.301 l -32.41,5.609 1.29,7.422 32.36,-5.613 c 4.87,-0.84 8.54,-1.02 11,-0.508 2.47,0.508 4.51,1.758 6.14,3.75 1.65,1.98 2.74,4.57 3.29,7.758 0.94,5.453 0.38,9.562 -1.69,12.312 -2.07,2.75 -6.63,4.739 -13.67,5.957 l -32.36,5.602" /><path
         id="path430"
         style="fill:#1d1b19;fill-opacity:1;fill-rule:nonzero;stroke:none"
         d="m 1418.91,969.27 -19.35,1.089 1.78,31.431 -6.67,0.39 -1.78,-31.442 -17.4,0.981 1.91,33.561 -6.71,0.38 -2.33,-41.078 56.83,-3.223 2.39,42.411 -6.71,0.38 -1.96,-34.88" /><path
         id="path432"
         style="fill:#1d1b19;fill-opacity:1;fill-rule:nonzero;stroke:none"
         d="m 1401.23,1022.23 -1.22,26.66 -6.71,-0.3 1.23,-26.67 -17.59,-0.81 -1.44,30.81 -6.7,-0.3 1.78,-38.34 56.82,2.63 -0.35,7.52 -25.82,-1.2" /><path
         id="path434"
         style="fill:#1d1b19;fill-opacity:1;fill-rule:nonzero;stroke:none"
         d="m 1383.01,1072.32 c -3.74,0.82 -7.47,1.35 -11.18,1.57 2.94,1.28 6.65,3.15 11.14,5.6 l 14.81,8.03 2.62,-19.12 z m 23.76,-5.24 -3.23,23.57 16.17,8.92 -1.16,8.49 -53.21,-30.8 1.1,-8.02 59.34,-13.94 -1.09,7.92 -17.92,3.86" /><path
         id="path436"
         style="fill:#1d1b19;fill-opacity:1;fill-rule:nonzero;stroke:none"
         d="m 1406.7,1156.79 -48.48,-12.95 -4.87,18.18 -6.48,-1.74 11.65,-43.57 6.49,1.73 -4.84,18.12 48.48,12.96 -1.95,7.27" /><path
         id="path438"
         style="fill:#1d1b19;fill-opacity:1;fill-rule:nonzero;stroke:none"
         d="m 1351.28,1173.91 39.72,32.19 -2.35,6.36 -50.36,-0.98 44.64,16.48 -2.51,6.81 -53.34,-19.68 3.5,-9.51 41.84,0.93 c 4.22,0.1 7.43,0.21 9.59,0.31 -1.55,-1.17 -3.87,-2.99 -6.96,-5.46 l -33.1,-26.57 3.91,-10.61 53.34,19.68 -2.51,6.81 -45.41,-16.76" /><path
         id="path440"
         style="fill:#3849a2;fill-opacity:1;fill-rule:nonzero;stroke:none"
         d="m 900.855,2237.43 c -2.14,0.1 -4.394,0.18 -6.671,0.27 2.089,-32.14 5.461,-86.06 9.191,-154.51 0.008,0 0.008,0 0.008,0 26.789,-10.71 49.062,-29.12 63.508,-52.19 -15.02,19.73 -37.121,34.6 -62.93,41.57 v 0 c 0.781,-14.59 1.59,-29.8 2.402,-45.57 v 0 c 23.262,-10.48 39.285,-32.24 39.285,-57.47 0,-23.22 -13.601,-43.5 -33.886,-54.76 -0.008,0 -0.008,0 -0.008,0 0.644,-14.56 1.289,-29.38 1.914,-44.44 0.008,0 0.008,0 0.02,0.01 23.691,8.57 43.601,24 56.804,43.65 -12.41,-22.72 -32.156,-41.46 -56.394,-53.61 h -0.02 c 1.953,-47.17 3.77,-96.5 5.32,-146.95 16.868,-5.45 34.661,-10.03 53.399,-13.68 60.053,92.86 115.303,224 149.333,409.14 8.57,88.07 11.37,144.71 11.62,150.8 -15.9,-10.33 -144.672,-26.23 -232.895,-22.26" /><path
         id="path442"
         style="fill:#527ec8;fill-opacity:1;fill-rule:nonzero;stroke:none"
         d="m 753.855,1969.92 c 0,-59.13 52.372,-107.06 117,-107.06 15.137,0 29.559,2.68 42.813,7.47 -0.625,15.06 -1.27,29.88 -1.914,44.44 -10.664,-5.92 -23.164,-9.39 -36.574,-9.39 -38.914,0 -70.465,28.72 -70.465,64.15 0,35.43 31.551,64.15 70.465,64.15 11.211,0 21.769,-2.44 31.183,-6.68 -0.812,15.77 -1.621,30.98 -2.402,45.57 -10.5,2.84 -21.594,4.41 -33.106,4.41 -64.628,0 -117,-47.93 -117,-107.06" /><path
         id="path444"
         style="fill:#527ec8;fill-opacity:1;fill-rule:nonzero;stroke:none"
         d="m 849.449,1845.28 c -74.797,0 -135.398,55.56 -135.398,124.11 0,68.54 60.601,124.09 135.398,124.09 19.188,0 37.422,-3.68 53.926,-10.29 -3.73,68.45 -7.102,122.37 -9.191,154.51 -91.317,3.59 -284.274,1.32 -284.274,1.32 4.488,-63.33 10.926,-129.84 18.531,-196.89 28.391,-102.38 102.567,-267.86 290.957,-328.7 -1.55,50.45 -3.367,99.78 -5.32,146.95 -19.191,-9.61 -41.191,-15.1 -64.629,-15.1" /><path
         id="path446"
         style="fill:#3849a2;fill-opacity:1;fill-rule:nonzero;stroke:none"
         d="m 903.961,2072.57 c -0.188,3.57 -0.383,7.13 -0.578,10.62 0,0 0,0 -0.008,0 0.195,-3.48 0.391,-7.06 0.586,-10.62 v 0" /><path
         id="path448"
         style="fill:#3849a2;fill-opacity:1;fill-rule:nonzero;stroke:none"
         d="m 914.098,1860.38 c -0.137,3.32 -0.274,6.66 -0.41,9.96 -0.012,-0.01 -0.012,-0.01 -0.02,-0.01 0.137,-3.31 0.273,-6.62 0.41,-9.95 h 0.02" /></g></g></svg>